<?xml version="1.0" encoding="UTF-8"?>

<svg version="1.2" baseProfile="tiny" width="139.7mm" height="57.15mm" viewBox="0 0 13970 5715" preserveAspectRatio="xMidYMid" fill-rule="evenodd" stroke-width="28.222" stroke-linejoin="round" xmlns="http://www.w3.org/2000/svg" xmlns:xlink="http://www.w3.org/1999/xlink" xml:space="preserve">
 <g visibility="visible" id="MasterSlide_1_Default">
  <desc>Master slide
  </desc>
  <rect fill="none" stroke="none" x="0" y="0" width="13970" height="5715"/>
  <defs>
   <linearGradient id="Gradient_3" gradientUnits="userSpaceOnUse" x1="2075" y1="-2069" x2="11893" y2="7783">
    <stop offset="0" stop-color="rgb(0,0,128)"/>
    <stop offset="1" stop-color="rgb(255,255,255)"/>
   </linearGradient>
  </defs>
  <path fill="url(#Gradient_3)" stroke="none" d="M 6985,5714 L 0,5714 0,0 13969,0 13969,5714 6985,5714 Z"/>
 </g>
 <g visibility="visible" id="Slide_1_page1">
  <g>
   <path fill="rgb(238,238,238)" stroke="none" d="M 9556,1917 C 9556,647 4349,1282 4349,1282 L 3841,2044 9556,1917 Z"/>
   <path fill="none" stroke="rgb(0,0,0)" id="Drawing_1_0" stroke-linejoin="round" d="M 9556,1917 C 9556,647 4349,1282 4349,1282 L 3841,2044 9556,1917 Z"/>
  </g>
  <g>
   <defs>
    <linearGradient id="Gradient_4" gradientUnits="userSpaceOnUse" x1="7268" y1="1201" x2="7268" y2="3895">
     <stop offset="0" stop-color="rgb(128,128,128)"/>
     <stop offset="1" stop-color="rgb(128,128,128)"/>
    </linearGradient>
   </defs>
   <path fill="url(#Gradient_4)" stroke="none" id="Drawing_2_0" d="M 10137,3895 L 11331,3851 11798,3801 12187,3736 12505,3659 12760,3574 12958,3482 13106,3387 13163,3339 13210,3292 13248,3246 13279,3200 13301,3157 13317,3115 13328,3075 13334,3038 13336,3004 13335,2973 13327,2923 13317,2890 13312,2879 13305,2869 13283,2841 13242,2798 13177,2742 13086,2677 12964,2604 12808,2528 12614,2450 12378,2374 12097,2302 11766,2237 11383,2182 10444,2113 9248,2117 8025,2126 7014,2071 6199,1972 5565,1847 5098,1716 4783,1599 4605,1514 4549,1482 3962,1393 2708,1244 2069,1203 1788,1201 1549,1214 1448,1228 1363,1246 1294,1270 1243,1300 1225,1317 1211,1335 1203,1356 1200,1377 1203,1401 1212,1426 1226,1453 1247,1482 1292,1544 1332,1612 1398,1763 1447,1929 1481,2107 1502,2294 1510,2484 1501,2863 1468,3212 1426,3500 1374,3768 10137,3895 Z"/>
   <path fill="none" stroke="rgb(128,128,128)" id="Drawing_2_1" stroke-linejoin="bevel" d="M 10137,3895 C 13820,3895 13312,2879 13312,2879 13312,2879 12804,1990 9248,2117 5692,2244 4549,1482 4549,1482 4549,1482 739,847 1247,1482 1755,2117 1374,3768 1374,3768 L 10137,3895 Z"/>
   <defs>
    <linearGradient id="Gradient_5" gradientUnits="userSpaceOnUse" x1="7068" y1="1001" x2="7068" y2="3695">
     <stop offset="0" stop-color="rgb(51,51,255)"/>
     <stop offset="1" stop-color="rgb(51,51,102)"/>
    </linearGradient>
   </defs>
   <path fill="url(#Gradient_5)" stroke="none" id="Drawing_2_2" d="M 9937,3695 L 11131,3651 11598,3601 11987,3536 12305,3459 12560,3374 12758,3282 12906,3187 12963,3139 13010,3092 13048,3046 13079,3000 13101,2957 13117,2915 13128,2875 13134,2838 13136,2804 13135,2773 13127,2723 13117,2690 13112,2679 13105,2669 13083,2641 13042,2598 12977,2542 12886,2477 12764,2404 12608,2328 12414,2250 12178,2174 11897,2102 11566,2037 11183,1982 10244,1913 9048,1917 7825,1926 6814,1871 5999,1772 5365,1647 4898,1516 4583,1399 4405,1314 4349,1282 3762,1193 2508,1044 1869,1003 1588,1001 1349,1014 1248,1028 1163,1046 1094,1070 1043,1100 1025,1117 1011,1135 1003,1156 1000,1177 1003,1201 1012,1226 1026,1253 1047,1282 1092,1344 1132,1412 1198,1563 1247,1729 1281,1907 1302,2094 1310,2284 1301,2663 1268,3012 1226,3300 1174,3568 9937,3695 Z"/>
   <path fill="none" stroke="rgb(128,128,128)" id="Drawing_2_3" stroke-linejoin="bevel" d="M 9937,3695 C 13620,3695 13112,2679 13112,2679 13112,2679 12604,1790 9048,1917 5492,2044 4349,1282 4349,1282 4349,1282 539,647 1047,1282 1555,1917 1174,3568 1174,3568 L 9937,3695 Z"/>
  </g>
  <g>
   <path fill="rgb(0,0,0)" stroke="none" d="M 8985,4584 C 8809,4584 8660,4544 8508,4456 8356,4369 8247,4260 8160,4108 8072,3956 8032,3807 8032,3632 8032,3456 8072,3307 8160,3155 8247,3003 8356,2894 8508,2807 8660,2719 8809,2679 8985,2679 9160,2679 9309,2719 9461,2807 9613,2894 9722,3003 9809,3155 9897,3307 9937,3456 9937,3631 9937,3807 9897,3956 9809,4108 9722,4260 9613,4369 9461,4456 9309,4544 9160,4584 8985,4584 L 8985,4584 Z"/>
   <path fill="none" stroke="rgb(128,128,128)" id="Drawing_3_0" stroke-linejoin="round" d="M 8985,4584 C 8809,4584 8660,4544 8508,4456 8356,4369 8247,4260 8160,4108 8072,3956 8032,3807 8032,3632 8032,3456 8072,3307 8160,3155 8247,3003 8356,2894 8508,2807 8660,2719 8809,2679 8985,2679 9160,2679 9309,2719 9461,2807 9613,2894 9722,3003 9809,3155 9897,3307 9937,3456 9937,3631 9937,3807 9897,3956 9809,4108 9722,4260 9613,4369 9461,4456 9309,4544 9160,4584 8985,4584 L 8985,4584 Z"/>
  </g>
  <g>
   <path fill="rgb(0,0,0)" stroke="none" d="M 3778,4584 C 3602,4584 3453,4544 3301,4456 3149,4369 3040,4260 2953,4108 2865,3956 2825,3807 2825,3632 2825,3456 2865,3307 2953,3155 3040,3003 3149,2894 3301,2807 3453,2719 3602,2679 3777,2679 3953,2679 4102,2719 4254,2807 4406,2894 4515,3003 4602,3155 4690,3307 4730,3456 4730,3631 4730,3807 4690,3956 4602,4108 4515,4260 4406,4369 4254,4456 4102,4544 3953,4584 3778,4584 L 3778,4584 Z"/>
   <path fill="none" stroke="rgb(128,128,128)" id="Drawing_4_0" stroke-linejoin="round" d="M 3778,4584 C 3602,4584 3453,4544 3301,4456 3149,4369 3040,4260 2953,4108 2865,3956 2825,3807 2825,3632 2825,3456 2865,3307 2953,3155 3040,3003 3149,2894 3301,2807 3453,2719 3602,2679 3777,2679 3953,2679 4102,2719 4254,2807 4406,2894 4515,3003 4602,3155 4690,3307 4730,3456 4730,3631 4730,3807 4690,3956 4602,4108 4515,4260 4406,4369 4254,4456 4102,4544 3953,4584 3778,4584 L 3778,4584 Z"/>
  </g>
 </g>
</svg>